<?xml version="1.0" encoding="utf-8"?>
<!-- Generator: Adobe Illustrator 27.4.0, SVG Export Plug-In . SVG Version: 6.00 Build 0)  -->
<svg version="1.1" id="Layer_1" xmlns="http://www.w3.org/2000/svg" xmlns:xlink="http://www.w3.org/1999/xlink" x="0px" y="0px"
	 viewBox="0 0 320 72" style="enable-background:new 0 0 320 72;" xml:space="preserve">
<style type="text/css">
	.st0{opacity:0.5;}
	.st1{fill-rule:evenodd;clip-rule:evenodd;fill:url(#SVGID_1_);}
	.st2{fill:#FFFFFF;}
</style>
<g class="st0">
	
		<linearGradient id="SVGID_1_" gradientUnits="userSpaceOnUse" x1="160" y1="1688.9407" x2="160" y2="1727.8358" gradientTransform="matrix(1 0 0 1 0 -1684)">
		<stop  offset="0" style="stop-color:#000000;stop-opacity:0"/>
		<stop  offset="1" style="stop-color:#000000"/>
	</linearGradient>
	<path class="st1" d="M0,8.6l4.8,0.9l2.7,0.4c2.7,0.4,4,0.7,4,0.7l2.7-0.2c1.4-0.1,2-0.1,2.9-0.1s2,0.1,4.3,0l4,0.4l2,0.1
		c2,0.1,2.7,0.6,2.7,0.6l2.7,0.1l6-0.1l2.7-0.2l0,0c1.1-0.1,1.3-0.1,1.3-0.1l0,0c-0.1,0-0.3-0.1,0.7-0.3c2-0.5,2-1.3,2-1.3L50.8,8
		l3.3-1l4.7-1l4.7,0.1c2.2,0.1,2.3,0.1,2.3,0l0,0c0,0,0-0.1,2.3-0.2c2.4,0.1,2.4,0.1,2.2,0C70,5.7,69.5,5.5,70.9,5l0,0
		c0.8-0.3,1.2-0.5,1.2-0.5s-0.6,0.1,0.1-0.3c1.3-0.8,4.7,0.1,4.7,0.1l4.7,0.1l0.7-0.8c0.7-0.8,3.3-1,3.3-1l13.8,3.9l3.2,1.3l2.7,0.9
		l2.6,1.5l12.6,0.4l3.3,0.4c1.4,0.2,1.6,0.2,1.7,0.3l0.1,0.1c0.2,0.2,0.5,0.7,2.8,1.7l3.3,0.7l2.7,0.4l3.2,1.5l6.6,1.1
		c0,0,6.6,1.1,8.6,0.8c2-0.2,4.7,0.4,4.7,0.4l5.9,2.2l13.9,0.4c2,0.1,3.3,0.4,3.3,0.4l4.7,0.7l4.7-0.2l4-0.2l2.7-0.8
		c2.7-0.8,4.7,0.1,4.7,0.1l3.2,1.3l2-0.2c0.9-0.1,1.9-0.3,2.7-0.5c0.1,0,0.1,0,0.2,0h0.1c0.9-0.2,1.5-0.4,1.5-0.4l2.7-1.3l0,0
		c1-0.5,1.3-0.6,1.3-0.7c0,0,0,0-0.1,0c-0.2,0-0.5,0,0.1-0.7c0,0,3.3,0.4,5.3,0.2c2-0.2,5.2,1.3,5.2,1.3l2-0.2
		c1.1-0.1,1.9-0.5,2.5-0.9s1-0.7,1-0.7l2.7-1.1c2.7-1.1,4-0.2,4-0.2l4,1l2-0.2c0.8-0.1,1.6-0.1,2.4-0.1c1.1,0,2.4,0,4.3-0.2l2.7,0.1
		l5.9,1c0,0,4,0.4,7.2,0.5c1.2,0,1.5,0,1.5,0s0,0-0.1,0c-0.2-0.1-0.5-0.2,0.5-0.5c2-0.5,4,0.1,4,0.1l3.3,0.1l3.9,2.4l2.7,0.4
		c1.3,0.2,1.3,0.2,1.4,0.2s0.2-0.1,1.9-0.1c3.3,0.1,2.6,1.8,2.6,1.8l2,0.4c2,0.4,3.3-0.4,3.3-0.4l3.3-0.2l2.7-0.5l2-0.5
		c2-0.5,0.7-1.1,0.7-1.1l14.1-0.5L319,20c0.4,0,0.7-0.1,1-0.1v17.7c-0.3,0.1-0.7,0.2-1.3,0.3l-2.7,0.3l-14,0.9c0,0,1.3,0.6-0.7,1.1
		l-2,0.5l-2.7,0.5l-3.3,0.3c0,0-1.3,0.8-3.3,0.5l-2-0.3c0,0,0.6-1.7-2.7-1.7c-1.6,0-1.8,0.1-1.9,0.1s-0.1,0-1.4-0.1l-2.7-0.3l-4-2.3
		H272c0,0-2-0.5-4,0c-1,0.3-0.7,0.4-0.5,0.5h0.1c0,0-0.3,0-1.5,0c-3.3,0-7.2-0.3-7.2-0.3l-6-0.8h-2.7c-2,0.3-3.2,0.4-4.3,0.4
		c-0.8,0-1.5,0-2.4,0.2l-2,0.3l-4-0.8c0,0-1.3-0.8-4,0.3l-2.7,1.1c0,0-0.4,0.3-0.9,0.7c-0.6,0.4-1.4,0.8-2.5,0.9l-2,0.3
		c0,0-3.3-1.4-5.3-1.1c-2,0.3-5.3,0-5.3,0c-0.6,0.7-0.3,0.7-0.1,0.7h0.1c0,0-0.2,0.2-1.2,0.7l0,0l-2.7,1.4c0,0-0.6,0.2-1.5,0.4
		c-0.1,0-0.2,0.1-0.3,0.1c-0.9,0.2-1.8,0.5-2.7,0.6l-2,0.3l-3.3-1.1c0,0-2-0.8-4.7,0l-2.7,0.8l-4,0.3l-4.7,0.3l-4.7-0.5
		c0,0-1.3-0.3-3.3-0.3h-13.9l-6-2c0,0-2.7-0.6-4.7-0.3s-8.6-0.5-8.6-0.5l-6.7-0.8l-3.3-1.4l-2.7-0.3l-3.3-0.5
		c-2.3-1-2.7-1.4-2.9-1.6l-0.1-0.1c-0.1-0.1-0.4-0.1-1.7-0.3l-3.3-0.3h-12.6l-2.7-1.4l-2.7-0.8l-3.3-1.1L84.6,28
		c0,0-2.6,0.3-3.3,1.1l-0.7,0.8h-4.7c0,0-3.4-0.8-4.7,0c-0.7,0.4-0.1,0.3-0.1,0.3s-0.4,0.2-1.2,0.5l0,0c-1.3,0.6-0.8,0.8-0.6,0.9
		c0.2,0.1,0.2,0.1-2.1,0.3c-2.3,0.1-2.3,0.2-2.3,0.3l0,0c0,0-0.1,0-2.3,0h-4.7L53.2,33L51,34.2l-5.3,1.7c0,0,0,0.8-2,1.4
		c-1,0.3-0.8,0.3-0.7,0.4l0,0c0,0-0.2,0-1.3,0.2l0,0L39,38.2l-6,0.3h-2.7c0,0-0.7-0.5-2.7-0.5h-2l-4-0.3c-2.3,0.1-3.4,0.1-4.3,0.1
		s-1.6,0-2.9,0.1l-2.7,0.3c0,0-1.3-0.2-4-0.5L5,37.4l-5-0.9V8.6z"/>
</g>
<path class="st2" d="M320,35.6V72H0V34.5l5.2,0.9l2.7,0.3c2.7,0.3,4,0.5,4,0.5l2.7-0.3c1.3-0.2,2-0.2,2.9-0.2c0.9,0,2,0,4.3-0.1
	l4,0.3h2c2,0,2.7,0.5,2.7,0.5h2.7l5.9-0.3l2.7-0.3c1.1-0.1,1.3-0.2,1.3-0.2l0,0c-0.1,0-0.3-0.1,0.7-0.4c2-0.6,2-1.4,2-1.4l5.2-1.7
	l3.3-1.1l4.7-0.9h4.7c2.2,0,2.3,0,2.3,0l0,0c0,0,0-0.1,2.3-0.3c2.3-0.2,2.3-0.2,2.1-0.3c-0.1,0-0.3-0.1-0.3-0.2s0.2-0.3,0.9-0.6
	c0.8-0.3,1.2-0.5,1.2-0.5s-0.6,0.2,0.1-0.3c1.3-0.8,4.7,0,4.7,0h4.7l0.7-0.8c0.7-0.9,3.3-1.2,3.3-1.2l13.9,3.4l3.3,1.1l2.7,0.9
	l2.7,1.4h12.6L124,33c1.3,0.1,1.6,0.1,1.7,0.3c0,0,0.1,0,0.1,0.1c0.2,0.2,0.5,0.6,2.9,1.6l3.3,0.6l2.7,0.3l3.3,1.4l6.6,0.9
	c0,0,6.7,0.8,8.6,0.5c2-0.3,4.7,0.3,4.7,0.3l6,2h13.9c2,0,3.3,0.3,3.3,0.3l4.7,0.6l4.7-0.3l4-0.3l2.7-0.8c2.7-0.9,4.7,0,4.7,0
	l3.3,1.1l2-0.3c0.9-0.1,1.9-0.4,2.7-0.6c0.1,0,0.2-0.1,0.3-0.1c0.9-0.2,1.5-0.4,1.5-0.4l2.7-1.4c1-0.5,1.2-0.7,1.2-0.7s0,0-0.1,0
	c-0.2,0-0.5,0,0.1-0.7c0,0,3.3,0.3,5.2,0c2-0.3,5.2,1.2,5.2,1.2l2-0.3c1-0.2,1.9-0.5,2.5-1c0.6-0.4,0.9-0.8,0.9-0.8l2.7-1.2
	c2.7-1.1,4-0.3,4-0.3l4,0.9l2-0.3c0.8-0.1,1.6-0.1,2.4-0.2c1.1,0,2.3-0.1,4.3-0.4h2.7l5.9,0.9c0,0,4,0.3,7.2,0.3c1.2,0,1.5,0,1.5,0
	s0,0-0.1,0c-0.2-0.1-0.5-0.2,0.5-0.5c2-0.6,4,0,4,0h3.3l4,2.3l2.7,0.3c1.3,0.2,1.3,0.2,1.4,0.1c0.1,0,0.2-0.1,1.8-0.1
	c3.3,0,2.7,1.7,2.7,1.7l2,0.3c2,0.3,3.3-0.5,3.3-0.5l3.3-0.3l2.7-0.6l2-0.5c2-0.5,0.7-1.1,0.7-1.1l14-0.9l2.7-0.3
	C319.3,35.8,319.8,35.7,320,35.6z"/>
</svg>
